<?xml version="1.0" encoding="utf-8"?>
<!-- Generator: Adobe Illustrator 18.1.0, SVG Export Plug-In . SVG Version: 6.00 Build 0)  -->
<svg version="1.1" id="Layer_1" xmlns="http://www.w3.org/2000/svg" xmlns:xlink="http://www.w3.org/1999/xlink" x="0px" y="0px"
	 viewBox="0 0 150 150" enable-background="new 0 0 150 150" xml:space="preserve">
<g>
	<path fill="#96D0F0" d="M62.1,100c6.8,0,13.6,0,20.4,0c10.7,0,31.6,1.2,31.6-14.8c0-6.7-5.5-12.4-13.3-14l-4.1-1.1l0.5-6
		c0-8-7.9-14.5-17.6-14.5c-9.1,0-16.8,5.9-17.5,13.3L61.6,67l-4.1,0.2c-9.4,0.4-16.8,6.7-16.8,14.5c0,2.6-2.1,4.8-4.8,4.8
		c-2.6,0-4.8-2.1-4.8-4.8c0-11.8,9.5-21.5,22.2-23.5c3-10.5,13.5-18.1,26.2-18.1c14.6,0,26.4,10.2,27,23c10.2,3.6,17,12.4,17,22.4
		c0,12.5-10.7,23.5-24.5,24.5h12.4c11.4,0,20.6-7.8,20.6-17.2V53.1c0-9.3-9.2-17.1-20.6-17.1H42.5C31.2,36,22,43.7,22,53.1v39.8
		c0,2.3,0.6,4.4,1.6,6.4c1.6,0.6,3.3,0.8,5.2,0.8C39.9,100,51,100,62.1,100z"/>
	<path fill="#3F5564" d="M121.9,22H28.8C15.7,22,5,33,5,46.1v40C5,99.2,15.7,110,28.8,110h67.9c0.8,0,0.7,0,2.2-0.2
		c0.1,0,0.1,0,0.2-0.1c13.7-1.2,24.5-11.8,24.5-24.3c0-10-6.8-18.7-17-22.3c-0.6-12.8-12.5-23-27-23c-12.6,0-23.2,7.5-26.2,18
		c-12.7,2.1-22.2,11.8-22.2,23.5c0,2.6,2.1,4.8,4.8,4.8c2.6,0,4.8-2.1,4.8-4.8c0-7.8,7.4-14.2,16.8-14.5l4.1-0.2l0.4-4.1
		c0.8-7.5,8.5-13.3,17.5-13.3c9.7,0,17.6,6.5,17.6,14.5l-0.5,6l4.1,1.2c7.9,1.6,13.3,7.2,13.3,13.9c0,16-20.9,14.8-31.6,14.8
		c-6.8,0-13.6,0-20.4,0c-11.1,0-22.2,0-33.3,0c-1.8,0-3.3-0.2-4.9-0.8c-5.3-2.1-8.8-7-8.8-13.1v-40C15,38.3,20.9,32,28.8,32h93.1
		c7.9,0,14.1,6.3,14.1,14.1v55.4c0,7.9-6.2,14.4-14.1,14.4H40v21h58.9c2.6,0,4.8-2.4,4.8-5c0-2.6-2.1-5-4.8-5c0,0-41.9,0-49.9,0
		c0-1,0-1,0-2c9,0,72.9,0,72.9,0c13.1,0,24.1-10.3,24.1-23.4V46.1C146,33,135,22,121.9,22z"/>
</g>
</svg>
